<?xml version="1.0" encoding="UTF-8"?><svg id="Layer_1" xmlns="http://www.w3.org/2000/svg" viewBox="0 0 1474.02 950.39"><defs><style>.cls-1{fill:#130739;stroke-width:0px;}</style></defs><path class="cls-1" d="M1286.32,315.98l-35.3,57.34c92,42.22,156.05,135.21,156.05,242.88,0,147.27-119.81,267.09-267.09,267.09l-457.81-1.73-39.4,68.15,497.21.52c184.19,0,334.03-149.84,334.03-334.03,0-131.73-76.66-245.88-187.7-300.22Z"/><path class="cls-1" d="M1030.68.12c-184.19,0-334.03,149.84-334.03,334.03,0,25.04,2.86,49.41,8.11,72.9h-.58c3.5,21.53,5.4,43.6,5.4,66.1,0,226.24-184.06,410.29-410.29,410.29h-52.6v-453.56h-66.95v520.5h119.54c239.01,0,437.51-176.63,471.93-406.2,44.3,54.62,105.45,95.05,175.46,113.27l37.15-60.35c-125-22.22-220.22-131.67-220.22-262.96,0-147.27,119.81-267.09,267.08-267.09h279.4L1351.29.12h-320.61Z"/><path class="cls-1" d="M630.7,197.15c7.56-23.1,16.93-45.39,27.94-66.71C573.14,49.65,457.93,0,331.28,0H0v638.73h66.95V66.95h264.34c118.03,0,224.51,50.14,299.41,130.2Z"/><circle class="cls-1" cx="213.59" cy="275.83" r="75.1"/><circle class="cls-1" cx="1127.39" cy="475.86" r="90.56"/></svg>